<svg width="24" height="24" viewBox="0 0 24 24" fill="none" xmlns="http://www.w3.org/2000/svg">
<path d="M18.9977 9.62736V5.32736C18.9977 4.77736 18.5477 4.32736 17.9977 4.32736H16.9977C16.4477 4.32736 15.9977 4.77736 15.9977 5.32736V6.92736L12.6677 3.92736C12.2877 3.58736 11.7077 3.58736 11.3277 3.92736L2.96766 11.4574C2.62766 11.7574 2.83766 12.3274 3.29766 12.3274H4.99766V19.3274C4.99766 19.8774 5.44766 20.3274 5.99766 20.3274H8.99766C9.54766 20.3274 9.99766 19.8774 9.99766 19.3274V14.3274H13.9977V19.3274C13.9977 19.8774 14.4477 20.3274 14.9977 20.3274H17.9977C18.5477 20.3274 18.9977 19.8774 18.9977 19.3274V12.3274H20.6977C21.1577 12.3274 21.3777 11.7574 21.0277 11.4574L18.9977 9.62736ZM9.99766 10.3274C9.99766 9.22736 10.8977 8.32736 11.9977 8.32736C13.0977 8.32736 13.9977 9.22736 13.9977 10.3274H9.99766Z" fill="#6C6C6C"/>
</svg>
