<svg width="95" height="28" viewBox="0 0 95 28" fill="none" xmlns="http://www.w3.org/2000/svg">
<path d="M12.2341 2.25098V25.7496H7.29086V2.25098H12.2341ZM19.6407 2.25098V6.04368H0V2.25098H19.6407Z" fill="#FC5B2B"/>
<path d="M22.4678 2.25098H31.4449C33.2856 2.25098 34.8672 2.51996 36.1898 3.05794C37.5234 3.59591 38.5484 4.39211 39.2648 5.44654C39.9813 6.50096 40.3395 7.79748 40.3395 9.33608C40.3395 10.5949 40.119 11.6763 39.6782 12.5801C39.2483 13.4731 38.6366 14.2209 37.843 14.8234C37.0605 15.4152 36.1402 15.8886 35.0821 16.2437L33.5115 17.0506H25.7081L25.6751 13.274H31.478C32.3487 13.274 33.0706 13.1234 33.6438 12.8221C34.2169 12.5209 34.6468 12.1013 34.9333 11.5633C35.2309 11.0253 35.3797 10.4013 35.3797 9.69114C35.3797 8.93798 35.2364 8.28703 34.9498 7.7383C34.6633 7.18957 34.2279 6.76995 33.6438 6.47944C33.0596 6.18894 32.3267 6.04368 31.4449 6.04368H27.4275V25.7496H22.4678V2.25098ZM35.9253 25.7496L30.4365 15.2753L35.6773 15.243L41.2322 25.5237V25.7496H35.9253Z" fill="#FC5B2B"/>
<path fill-rule="evenodd" clip-rule="evenodd" d="M57.6526 0L63.8622 3.49876L70.0739 6.99929V14.0004V21.0011L63.8622 24.4998L57.6526 28L51.4427 24.4998L45.2324 21.0011V14.0004V6.99929L51.4427 3.49876L57.6526 0Z" fill="#F7F7F7"/>
<path fill-rule="evenodd" clip-rule="evenodd" d="M56.0219 24.4906V14.8923L50.3126 11.6747L49.4763 15.3048L48.9789 10.9232L47.5107 10.0947V19.693L52.2731 22.3785L52.791 17.4694L53.352 22.9861L56.0219 24.4906Z" fill="#FC5B2B"/>
<path fill-rule="evenodd" clip-rule="evenodd" d="M49.1367 7.33937L50.8521 8.30722L54.6924 6.33413L52.0047 8.95644L57.6526 12.1398L63.5456 8.81742L60.8597 6.19688L64.7014 8.1682L66.1682 7.33937L57.6526 2.54004L49.1367 7.33937Z" fill="#FC5B2B"/>
<path fill-rule="evenodd" clip-rule="evenodd" d="M59.2842 24.4906V14.8923L64.9931 11.6747L65.8291 15.3048L66.3269 10.9232L67.7965 10.0947V19.693L63.0323 22.3785L62.5162 17.4694L61.9552 22.9861L59.2842 24.4906Z" fill="#FC5B2B"/>
<path d="M79.9588 2.25049L84.4888 10.4492L89.0187 2.25049H94.6894L87.6961 13.903L94.8712 25.7491H89.1509L84.4888 17.389L79.8266 25.7491H74.0732L81.2649 13.903L74.2551 2.25049H79.9588Z" fill="#FC5B2B"/>
</svg>
