<svg width="24" height="24" viewBox="0 0 24 24" fill="none" xmlns="http://www.w3.org/2000/svg">
<path d="M19 19.5015H12.2071L15.2071 16.5015H19C19.8239 16.5015 20.5 17.1777 20.5 18.0015C20.5 18.8254 19.8239 19.5015 19 19.5015ZM3.64355 16.3151L12.0605 7.89816L15.1124 10.942L6.70191 19.3525C6.59727 19.4498 6.46935 19.5015 6.34 19.5015H4C3.72614 19.5015 3.5 19.2754 3.5 19.0015V16.6615C3.5 16.5356 3.55625 16.4024 3.64355 16.3151ZM18.3564 6.98508C18.5512 7.17981 18.5512 7.49323 18.3564 7.68797L16.88 9.16442L13.8371 6.12152L15.3136 4.64508C15.5083 4.45034 15.8217 4.45034 16.0164 4.64508L18.3564 6.98508Z" fill="#F4A100" stroke="#F4A100"/>
</svg>
